<mxfile host="app.diagrams.net" agent="Mozilla/5.0 (X11; Linux x86_64) AppleWebKit/537.36 (KHTML, like Gecko) Chrome/138.0.0.0 Safari/537.36" version="28.0.6">
  <diagram name="Página-1" id="SxJ-E1xbfJwuOHIO3vzG">
    <mxGraphModel dx="2377" dy="1322" grid="0" gridSize="10" guides="1" tooltips="1" connect="1" arrows="1" fold="1" page="0" pageScale="1" pageWidth="850" pageHeight="1100" math="0" shadow="0">
      <root>
        <mxCell id="0" />
        <mxCell id="1" parent="0" />
        <mxCell id="oSE1kMPq5lx7fIb-xFxK-1" value="Cliente" style="swimlane;childLayout=stackLayout;resizeParent=1;resizeParentMax=0;horizontal=0;startSize=20;horizontalStack=0;html=1;fillColor=#bac8d3;strokeColor=#23445d;" parent="1" vertex="1">
          <mxGeometry y="200" width="2530" height="120" as="geometry" />
        </mxCell>
        <mxCell id="oSE1kMPq5lx7fIb-xFxK-2" value="Cliente" style="swimlane;startSize=40;horizontal=0;html=1;fillColor=#fff2cc;strokeColor=#d6b656;" parent="oSE1kMPq5lx7fIb-xFxK-1" vertex="1">
          <mxGeometry x="20" width="2510" height="120" as="geometry" />
        </mxCell>
        <mxCell id="A5VUnK2V4IBuq19Gsul9-67" style="edgeStyle=orthogonalEdgeStyle;rounded=0;orthogonalLoop=1;jettySize=auto;html=1;" edge="1" parent="oSE1kMPq5lx7fIb-xFxK-2" source="ydT66f-T8BTC3pl3f6Xo-1" target="ydT66f-T8BTC3pl3f6Xo-47">
          <mxGeometry relative="1" as="geometry" />
        </mxCell>
        <mxCell id="ydT66f-T8BTC3pl3f6Xo-1" value="" style="points=[[0.145,0.145,0],[0.5,0,0],[0.855,0.145,0],[1,0.5,0],[0.855,0.855,0],[0.5,1,0],[0.145,0.855,0],[0,0.5,0]];shape=mxgraph.bpmn.event;html=1;verticalLabelPosition=bottom;labelBackgroundColor=#ffffff;verticalAlign=top;align=center;perimeter=ellipsePerimeter;outlineConnect=0;aspect=fixed;outline=standard;symbol=general;fillColor=none;strokeColor=#82b366;" parent="oSE1kMPq5lx7fIb-xFxK-2" vertex="1">
          <mxGeometry x="70" y="45" width="30" height="30" as="geometry" />
        </mxCell>
        <mxCell id="ydT66f-T8BTC3pl3f6Xo-4" value="Envía Solicitud de Devolución" style="points=[[0.25,0,0],[0.5,0,0],[0.75,0,0],[1,0.25,0],[1,0.5,0],[1,0.75,0],[0.75,1,0],[0.5,1,0],[0.25,1,0],[0,0.75,0],[0,0.5,0],[0,0.25,0]];shape=mxgraph.bpmn.task2;whiteSpace=wrap;rectStyle=rounded;size=10;html=1;container=1;expand=0;collapsible=0;taskMarker=send;fillColor=none;strokeColor=#d6b656;" parent="oSE1kMPq5lx7fIb-xFxK-2" vertex="1">
          <mxGeometry x="300" y="20" width="120" height="80" as="geometry" />
        </mxCell>
        <mxCell id="ydT66f-T8BTC3pl3f6Xo-37" style="edgeStyle=orthogonalEdgeStyle;rounded=0;orthogonalLoop=1;jettySize=auto;html=1;" parent="oSE1kMPq5lx7fIb-xFxK-2" source="ydT66f-T8BTC3pl3f6Xo-33" target="ydT66f-T8BTC3pl3f6Xo-35" edge="1">
          <mxGeometry relative="1" as="geometry" />
        </mxCell>
        <mxCell id="ydT66f-T8BTC3pl3f6Xo-33" value="Recibe Rechazo de solicitud" style="points=[[0.25,0,0],[0.5,0,0],[0.75,0,0],[1,0.25,0],[1,0.5,0],[1,0.75,0],[0.75,1,0],[0.5,1,0],[0.25,1,0],[0,0.75,0],[0,0.5,0],[0,0.25,0]];shape=mxgraph.bpmn.task2;whiteSpace=wrap;rectStyle=rounded;size=10;html=1;container=1;expand=0;collapsible=0;taskMarker=receive;fillColor=none;strokeColor=#d6b656;" parent="oSE1kMPq5lx7fIb-xFxK-2" vertex="1">
          <mxGeometry x="750" y="20" width="120" height="80" as="geometry" />
        </mxCell>
        <mxCell id="ydT66f-T8BTC3pl3f6Xo-35" value="" style="points=[[0.145,0.145,0],[0.5,0,0],[0.855,0.145,0],[1,0.5,0],[0.855,0.855,0],[0.5,1,0],[0.145,0.855,0],[0,0.5,0]];shape=mxgraph.bpmn.event;html=1;verticalLabelPosition=bottom;labelBackgroundColor=#ffffff;verticalAlign=top;align=center;perimeter=ellipsePerimeter;outlineConnect=0;aspect=fixed;outline=end;symbol=terminate2;fillColor=none;strokeColor=#ae4132;" parent="oSE1kMPq5lx7fIb-xFxK-2" vertex="1">
          <mxGeometry x="910" y="45" width="30" height="30" as="geometry" />
        </mxCell>
        <mxCell id="ydT66f-T8BTC3pl3f6Xo-48" style="edgeStyle=orthogonalEdgeStyle;rounded=0;orthogonalLoop=1;jettySize=auto;html=1;" parent="oSE1kMPq5lx7fIb-xFxK-2" source="ydT66f-T8BTC3pl3f6Xo-47" target="ydT66f-T8BTC3pl3f6Xo-4" edge="1">
          <mxGeometry relative="1" as="geometry" />
        </mxCell>
        <mxCell id="ydT66f-T8BTC3pl3f6Xo-47" value="Cliente decide devolver un producto" style="points=[[0.25,0,0],[0.5,0,0],[0.75,0,0],[1,0.25,0],[1,0.5,0],[1,0.75,0],[0.75,1,0],[0.5,1,0],[0.25,1,0],[0,0.75,0],[0,0.5,0],[0,0.25,0]];shape=mxgraph.bpmn.task2;whiteSpace=wrap;rectStyle=rounded;size=10;html=1;container=1;expand=0;collapsible=0;taskMarker=user;fillColor=none;strokeColor=#d6b656;" parent="oSE1kMPq5lx7fIb-xFxK-2" vertex="1">
          <mxGeometry x="143" y="20" width="120" height="80" as="geometry" />
        </mxCell>
        <mxCell id="ydT66f-T8BTC3pl3f6Xo-63" value="Envía Producto de vuelta a la tienda utilizando etiqueta" style="points=[[0.25,0,0],[0.5,0,0],[0.75,0,0],[1,0.25,0],[1,0.5,0],[1,0.75,0],[0.75,1,0],[0.5,1,0],[0.25,1,0],[0,0.75,0],[0,0.5,0],[0,0.25,0]];shape=mxgraph.bpmn.task2;whiteSpace=wrap;rectStyle=rounded;size=10;html=1;container=1;expand=0;collapsible=0;taskMarker=send;fillColor=none;strokeColor=#d6b656;" parent="oSE1kMPq5lx7fIb-xFxK-2" vertex="1">
          <mxGeometry x="1270" y="18" width="120" height="80" as="geometry" />
        </mxCell>
        <mxCell id="A5VUnK2V4IBuq19Gsul9-26" style="edgeStyle=orthogonalEdgeStyle;rounded=0;orthogonalLoop=1;jettySize=auto;html=1;" edge="1" source="A5VUnK2V4IBuq19Gsul9-27" target="A5VUnK2V4IBuq19Gsul9-28" parent="oSE1kMPq5lx7fIb-xFxK-2">
          <mxGeometry relative="1" as="geometry" />
        </mxCell>
        <mxCell id="A5VUnK2V4IBuq19Gsul9-27" value="Recibe Rechazo de solicitud" style="points=[[0.25,0,0],[0.5,0,0],[0.75,0,0],[1,0.25,0],[1,0.5,0],[1,0.75,0],[0.75,1,0],[0.5,1,0],[0.25,1,0],[0,0.75,0],[0,0.5,0],[0,0.25,0]];shape=mxgraph.bpmn.task2;whiteSpace=wrap;rectStyle=rounded;size=10;html=1;container=1;expand=0;collapsible=0;taskMarker=receive;fillColor=none;strokeColor=#d6b656;" vertex="1" parent="oSE1kMPq5lx7fIb-xFxK-2">
          <mxGeometry x="1720" y="20" width="120" height="80" as="geometry" />
        </mxCell>
        <mxCell id="A5VUnK2V4IBuq19Gsul9-28" value="" style="points=[[0.145,0.145,0],[0.5,0,0],[0.855,0.145,0],[1,0.5,0],[0.855,0.855,0],[0.5,1,0],[0.145,0.855,0],[0,0.5,0]];shape=mxgraph.bpmn.event;html=1;verticalLabelPosition=bottom;labelBackgroundColor=#ffffff;verticalAlign=top;align=center;perimeter=ellipsePerimeter;outlineConnect=0;aspect=fixed;outline=end;symbol=terminate2;fillColor=none;strokeColor=#ae4132;" vertex="1" parent="oSE1kMPq5lx7fIb-xFxK-2">
          <mxGeometry x="1880" y="45" width="30" height="30" as="geometry" />
        </mxCell>
        <mxCell id="A5VUnK2V4IBuq19Gsul9-66" style="edgeStyle=orthogonalEdgeStyle;rounded=0;orthogonalLoop=1;jettySize=auto;html=1;" edge="1" parent="oSE1kMPq5lx7fIb-xFxK-2" source="A5VUnK2V4IBuq19Gsul9-58" target="A5VUnK2V4IBuq19Gsul9-65">
          <mxGeometry relative="1" as="geometry" />
        </mxCell>
        <mxCell id="A5VUnK2V4IBuq19Gsul9-58" value="Recibe notificación de reembolso" style="points=[[0.25,0,0],[0.5,0,0],[0.75,0,0],[1,0.25,0],[1,0.5,0],[1,0.75,0],[0.75,1,0],[0.5,1,0],[0.25,1,0],[0,0.75,0],[0,0.5,0],[0,0.25,0]];shape=mxgraph.bpmn.task2;whiteSpace=wrap;rectStyle=rounded;size=10;html=1;container=1;expand=0;collapsible=0;taskMarker=receive;fillColor=none;strokeColor=#d6b656;" vertex="1" parent="oSE1kMPq5lx7fIb-xFxK-2">
          <mxGeometry x="2270" y="20" width="120" height="80" as="geometry" />
        </mxCell>
        <mxCell id="A5VUnK2V4IBuq19Gsul9-65" value="" style="points=[[0.145,0.145,0],[0.5,0,0],[0.855,0.145,0],[1,0.5,0],[0.855,0.855,0],[0.5,1,0],[0.145,0.855,0],[0,0.5,0]];shape=mxgraph.bpmn.event;html=1;verticalLabelPosition=bottom;labelBackgroundColor=#ffffff;verticalAlign=top;align=center;perimeter=ellipsePerimeter;outlineConnect=0;aspect=fixed;outline=end;symbol=terminate2;fillColor=none;strokeColor=#ae4132;" vertex="1" parent="oSE1kMPq5lx7fIb-xFxK-2">
          <mxGeometry x="2430" y="45" width="30" height="30" as="geometry" />
        </mxCell>
        <mxCell id="ydT66f-T8BTC3pl3f6Xo-59" value="Recibe Aprobación y Etiqueta de envío" style="points=[[0.25,0,0],[0.5,0,0],[0.75,0,0],[1,0.25,0],[1,0.5,0],[1,0.75,0],[0.75,1,0],[0.5,1,0],[0.25,1,0],[0,0.75,0],[0,0.5,0],[0,0.25,0]];shape=mxgraph.bpmn.task2;whiteSpace=wrap;rectStyle=rounded;size=10;html=1;container=1;expand=0;collapsible=0;taskMarker=receive;fillColor=none;strokeColor=#d6b656;" parent="oSE1kMPq5lx7fIb-xFxK-2" vertex="1">
          <mxGeometry x="1105" y="18" width="120" height="80" as="geometry" />
        </mxCell>
        <mxCell id="ydT66f-T8BTC3pl3f6Xo-64" style="edgeStyle=orthogonalEdgeStyle;rounded=0;orthogonalLoop=1;jettySize=auto;html=1;" parent="oSE1kMPq5lx7fIb-xFxK-2" source="ydT66f-T8BTC3pl3f6Xo-59" target="ydT66f-T8BTC3pl3f6Xo-63" edge="1">
          <mxGeometry relative="1" as="geometry" />
        </mxCell>
        <mxCell id="A5VUnK2V4IBuq19Gsul9-79" value="Proceso de&amp;nbsp;&lt;div&gt;Devolución y reembolso&lt;/div&gt;" style="text;html=1;align=center;verticalAlign=middle;resizable=0;points=[];autosize=1;strokeColor=none;fillColor=none;fontSize=8;" vertex="1" parent="oSE1kMPq5lx7fIb-xFxK-2">
          <mxGeometry x="31" y="73" width="110" height="30" as="geometry" />
        </mxCell>
        <mxCell id="A5VUnK2V4IBuq19Gsul9-105" value="Fin del proceso" style="text;html=1;align=center;verticalAlign=middle;resizable=0;points=[];autosize=1;strokeColor=none;fillColor=none;fontSize=8;" vertex="1" parent="oSE1kMPq5lx7fIb-xFxK-2">
          <mxGeometry x="885" y="75" width="80" height="20" as="geometry" />
        </mxCell>
        <mxCell id="A5VUnK2V4IBuq19Gsul9-106" value="Fin del proceso" style="text;html=1;align=center;verticalAlign=middle;resizable=0;points=[];autosize=1;strokeColor=none;fillColor=none;fontSize=8;" vertex="1" parent="oSE1kMPq5lx7fIb-xFxK-2">
          <mxGeometry x="1855" y="80" width="80" height="20" as="geometry" />
        </mxCell>
        <mxCell id="A5VUnK2V4IBuq19Gsul9-107" value="Fin del proceso" style="text;html=1;align=center;verticalAlign=middle;resizable=0;points=[];autosize=1;strokeColor=none;fillColor=none;fontSize=8;" vertex="1" parent="oSE1kMPq5lx7fIb-xFxK-2">
          <mxGeometry x="2405" y="78" width="80" height="20" as="geometry" />
        </mxCell>
        <mxCell id="oSE1kMPq5lx7fIb-xFxK-5" value="Tienda Gary White" style="swimlane;childLayout=stackLayout;resizeParent=1;resizeParentMax=0;horizontal=0;startSize=20;horizontalStack=0;html=1;fillColor=#bac8d3;strokeColor=#23445d;" parent="1" vertex="1">
          <mxGeometry y="361" width="2530" height="530" as="geometry" />
        </mxCell>
        <mxCell id="oSE1kMPq5lx7fIb-xFxK-6" value="&lt;font&gt;Atención al Cliente&amp;nbsp;&lt;/font&gt;&lt;div&gt;&lt;font&gt;(SAC)&lt;/font&gt;&lt;/div&gt;" style="swimlane;startSize=40;horizontal=0;html=1;fillColor=#e1d5e7;strokeColor=#9673a6;" parent="oSE1kMPq5lx7fIb-xFxK-5" vertex="1">
          <mxGeometry x="20" width="2510" height="220" as="geometry" />
        </mxCell>
        <mxCell id="ydT66f-T8BTC3pl3f6Xo-57" value="&lt;span style=&quot;caret-color: rgba(0, 0, 0, 0);&quot;&gt;Se envía etiqueta de envío&lt;/span&gt;" style="points=[[0.25,0,0],[0.5,0,0],[0.75,0,0],[1,0.25,0],[1,0.5,0],[1,0.75,0],[0.75,1,0],[0.5,1,0],[0.25,1,0],[0,0.75,0],[0,0.5,0],[0,0.25,0]];shape=mxgraph.bpmn.task2;whiteSpace=wrap;rectStyle=rounded;size=10;html=1;container=1;expand=0;collapsible=0;taskMarker=send;fillColor=none;strokeColor=#9673a6;" parent="oSE1kMPq5lx7fIb-xFxK-6" vertex="1">
          <mxGeometry x="1105" y="20" width="120" height="80" as="geometry" />
        </mxCell>
        <mxCell id="ydT66f-T8BTC3pl3f6Xo-50" style="edgeStyle=orthogonalEdgeStyle;rounded=0;orthogonalLoop=1;jettySize=auto;html=1;" parent="oSE1kMPq5lx7fIb-xFxK-6" source="ydT66f-T8BTC3pl3f6Xo-5" target="ydT66f-T8BTC3pl3f6Xo-13" edge="1">
          <mxGeometry relative="1" as="geometry" />
        </mxCell>
        <mxCell id="ydT66f-T8BTC3pl3f6Xo-5" value="Recibe solicitud de devolución" style="points=[[0.25,0,0],[0.5,0,0],[0.75,0,0],[1,0.25,0],[1,0.5,0],[1,0.75,0],[0.75,1,0],[0.5,1,0],[0.25,1,0],[0,0.75,0],[0,0.5,0],[0,0.25,0]];shape=mxgraph.bpmn.task2;whiteSpace=wrap;rectStyle=rounded;size=10;html=1;container=1;expand=0;collapsible=0;taskMarker=receive;fillColor=none;strokeColor=#9673a6;" parent="oSE1kMPq5lx7fIb-xFxK-6" vertex="1">
          <mxGeometry x="300" y="20" width="120" height="80" as="geometry" />
        </mxCell>
        <mxCell id="ydT66f-T8BTC3pl3f6Xo-52" style="edgeStyle=orthogonalEdgeStyle;rounded=0;orthogonalLoop=1;jettySize=auto;html=1;" parent="oSE1kMPq5lx7fIb-xFxK-6" source="ydT66f-T8BTC3pl3f6Xo-10" target="ydT66f-T8BTC3pl3f6Xo-32" edge="1">
          <mxGeometry relative="1" as="geometry" />
        </mxCell>
        <mxCell id="ydT66f-T8BTC3pl3f6Xo-54" style="edgeStyle=orthogonalEdgeStyle;rounded=0;orthogonalLoop=1;jettySize=auto;html=1;entryX=0.5;entryY=1;entryDx=0;entryDy=0;entryPerimeter=0;" parent="oSE1kMPq5lx7fIb-xFxK-6" source="ydT66f-T8BTC3pl3f6Xo-10" target="ydT66f-T8BTC3pl3f6Xo-29" edge="1">
          <mxGeometry relative="1" as="geometry">
            <Array as="points">
              <mxPoint x="655" y="140" />
              <mxPoint x="995" y="140" />
            </Array>
          </mxGeometry>
        </mxCell>
        <mxCell id="ydT66f-T8BTC3pl3f6Xo-10" value="" style="points=[[0.25,0.25,0],[0.5,0,0],[0.75,0.25,0],[1,0.5,0],[0.75,0.75,0],[0.5,1,0],[0.25,0.75,0],[0,0.5,0]];shape=mxgraph.bpmn.gateway2;html=1;verticalLabelPosition=bottom;labelBackgroundColor=#ffffff;verticalAlign=top;align=center;perimeter=rhombusPerimeter;outlineConnect=0;outline=none;symbol=none;gwType=exclusive;fillColor=#fad7ac;strokeColor=#b46504;" parent="oSE1kMPq5lx7fIb-xFxK-6" vertex="1">
          <mxGeometry x="635" y="40" width="40" height="40" as="geometry" />
        </mxCell>
        <mxCell id="ydT66f-T8BTC3pl3f6Xo-12" value="¿Solicitud Válida?" style="text;html=1;align=center;verticalAlign=middle;resizable=0;points=[];autosize=1;strokeColor=none;fillColor=none;fontSize=10;" parent="oSE1kMPq5lx7fIb-xFxK-6" vertex="1">
          <mxGeometry x="605" y="10" width="100" height="30" as="geometry" />
        </mxCell>
        <mxCell id="ydT66f-T8BTC3pl3f6Xo-51" style="edgeStyle=orthogonalEdgeStyle;rounded=0;orthogonalLoop=1;jettySize=auto;html=1;" parent="oSE1kMPq5lx7fIb-xFxK-6" source="ydT66f-T8BTC3pl3f6Xo-13" target="ydT66f-T8BTC3pl3f6Xo-10" edge="1">
          <mxGeometry relative="1" as="geometry" />
        </mxCell>
        <mxCell id="ydT66f-T8BTC3pl3f6Xo-13" value="&lt;span style=&quot;caret-color: rgba(0, 0, 0, 0);&quot;&gt;Revisar solicitud&lt;/span&gt;" style="points=[[0.25,0,0],[0.5,0,0],[0.75,0,0],[1,0.25,0],[1,0.5,0],[1,0.75,0],[0.75,1,0],[0.5,1,0],[0.25,1,0],[0,0.75,0],[0,0.5,0],[0,0.25,0]];shape=mxgraph.bpmn.task2;whiteSpace=wrap;rectStyle=rounded;size=10;html=1;container=1;expand=0;collapsible=0;taskMarker=manual;fillColor=none;strokeColor=#9673a6;" parent="oSE1kMPq5lx7fIb-xFxK-6" vertex="1">
          <mxGeometry x="470" y="20" width="120" height="80" as="geometry" />
        </mxCell>
        <mxCell id="ydT66f-T8BTC3pl3f6Xo-18" value="NO" style="text;html=1;align=center;verticalAlign=middle;resizable=0;points=[];autosize=1;strokeColor=none;fillColor=none;" parent="oSE1kMPq5lx7fIb-xFxK-6" vertex="1">
          <mxGeometry x="675" y="60" width="40" height="30" as="geometry" />
        </mxCell>
        <mxCell id="ydT66f-T8BTC3pl3f6Xo-58" style="edgeStyle=orthogonalEdgeStyle;rounded=0;orthogonalLoop=1;jettySize=auto;html=1;" parent="oSE1kMPq5lx7fIb-xFxK-6" source="ydT66f-T8BTC3pl3f6Xo-29" target="ydT66f-T8BTC3pl3f6Xo-57" edge="1">
          <mxGeometry relative="1" as="geometry" />
        </mxCell>
        <mxCell id="ydT66f-T8BTC3pl3f6Xo-29" value="Aprobar Devolución y Generar Etiqueta de envio&lt;span style=&quot;white-space:pre&quot;&gt;&#x9;&lt;/span&gt;" style="points=[[0.25,0,0],[0.5,0,0],[0.75,0,0],[1,0.25,0],[1,0.5,0],[1,0.75,0],[0.75,1,0],[0.5,1,0],[0.25,1,0],[0,0.75,0],[0,0.5,0],[0,0.25,0]];shape=mxgraph.bpmn.task2;whiteSpace=wrap;rectStyle=rounded;size=10;html=1;container=1;expand=0;collapsible=0;taskMarker=manual;fillColor=none;strokeColor=#9673a6;" parent="oSE1kMPq5lx7fIb-xFxK-6" vertex="1">
          <mxGeometry x="935" y="20" width="120" height="80" as="geometry" />
        </mxCell>
        <mxCell id="ydT66f-T8BTC3pl3f6Xo-31" value="SI" style="text;html=1;align=center;verticalAlign=middle;resizable=0;points=[];autosize=1;strokeColor=none;fillColor=none;" parent="oSE1kMPq5lx7fIb-xFxK-6" vertex="1">
          <mxGeometry x="655" y="110" width="30" height="30" as="geometry" />
        </mxCell>
        <mxCell id="ydT66f-T8BTC3pl3f6Xo-32" value="&lt;span style=&quot;caret-color: rgba(0, 0, 0, 0);&quot;&gt;Informar Rechazo de Solicitud&lt;/span&gt;" style="points=[[0.25,0,0],[0.5,0,0],[0.75,0,0],[1,0.25,0],[1,0.5,0],[1,0.75,0],[0.75,1,0],[0.5,1,0],[0.25,1,0],[0,0.75,0],[0,0.5,0],[0,0.25,0]];shape=mxgraph.bpmn.task2;whiteSpace=wrap;rectStyle=rounded;size=10;html=1;container=1;expand=0;collapsible=0;taskMarker=send;fillColor=none;strokeColor=#9673a6;" parent="oSE1kMPq5lx7fIb-xFxK-6" vertex="1">
          <mxGeometry x="750" y="20" width="120" height="80" as="geometry" />
        </mxCell>
        <mxCell id="A5VUnK2V4IBuq19Gsul9-13" value="Producto y Etiqueta" style="text;html=1;align=center;verticalAlign=middle;resizable=0;points=[];autosize=1;fontSize=9;labelBackgroundColor=default;" vertex="1" parent="oSE1kMPq5lx7fIb-xFxK-6">
          <mxGeometry x="1354" y="78" width="100" height="20" as="geometry" />
        </mxCell>
        <mxCell id="A5VUnK2V4IBuq19Gsul9-98" value="" style="edgeStyle=elbowEdgeStyle;fontSize=12;html=1;endFill=0;startFill=0;endSize=6;startSize=6;dashed=1;dashPattern=1 4;endArrow=openThin;startArrow=none;rounded=0;entryX=0.5;entryY=1;entryDx=0;entryDy=0;entryPerimeter=0;exitX=0;exitY=0;exitDx=40;exitDy=37.5;exitPerimeter=0;" edge="1" parent="oSE1kMPq5lx7fIb-xFxK-6" source="A5VUnK2V4IBuq19Gsul9-100" target="ydT66f-T8BTC3pl3f6Xo-13">
          <mxGeometry width="160" relative="1" as="geometry">
            <mxPoint x="410" y="149" as="sourcePoint" />
            <mxPoint x="800" y="149" as="targetPoint" />
            <Array as="points">
              <mxPoint x="530" y="149" />
            </Array>
          </mxGeometry>
        </mxCell>
        <mxCell id="A5VUnK2V4IBuq19Gsul9-100" value="Políticas de Devolución" style="shape=mxgraph.bpmn.data2;labelPosition=center;verticalLabelPosition=bottom;align=center;verticalAlign=top;size=15;html=1;bpmnTransferType=input;" vertex="1" parent="oSE1kMPq5lx7fIb-xFxK-6">
          <mxGeometry x="340" y="119" width="40" height="60" as="geometry" />
        </mxCell>
        <mxCell id="oSE1kMPq5lx7fIb-xFxK-7" value="Almacén/Logística" style="swimlane;startSize=40;horizontal=0;html=1;fillColor=#b0e3e6;strokeColor=#0e8088;" parent="oSE1kMPq5lx7fIb-xFxK-5" vertex="1">
          <mxGeometry x="20" y="220" width="2510" height="150" as="geometry" />
        </mxCell>
        <mxCell id="ydT66f-T8BTC3pl3f6Xo-68" style="edgeStyle=orthogonalEdgeStyle;rounded=0;orthogonalLoop=1;jettySize=auto;html=1;" parent="oSE1kMPq5lx7fIb-xFxK-7" source="ydT66f-T8BTC3pl3f6Xo-65" target="ydT66f-T8BTC3pl3f6Xo-67" edge="1">
          <mxGeometry relative="1" as="geometry" />
        </mxCell>
        <mxCell id="ydT66f-T8BTC3pl3f6Xo-65" value="Recibe Producto" style="points=[[0.25,0,0],[0.5,0,0],[0.75,0,0],[1,0.25,0],[1,0.5,0],[1,0.75,0],[0.75,1,0],[0.5,1,0],[0.25,1,0],[0,0.75,0],[0,0.5,0],[0,0.25,0]];shape=mxgraph.bpmn.task2;whiteSpace=wrap;rectStyle=rounded;size=10;html=1;container=1;expand=0;collapsible=0;taskMarker=receive;fillColor=none;strokeColor=#0e8088;" parent="oSE1kMPq5lx7fIb-xFxK-7" vertex="1">
          <mxGeometry x="1270" y="35" width="120" height="80" as="geometry" />
        </mxCell>
        <mxCell id="A5VUnK2V4IBuq19Gsul9-17" style="edgeStyle=orthogonalEdgeStyle;rounded=0;orthogonalLoop=1;jettySize=auto;html=1;" edge="1" parent="oSE1kMPq5lx7fIb-xFxK-7" source="ydT66f-T8BTC3pl3f6Xo-67" target="A5VUnK2V4IBuq19Gsul9-16">
          <mxGeometry relative="1" as="geometry" />
        </mxCell>
        <mxCell id="ydT66f-T8BTC3pl3f6Xo-67" value="Inspeccionar Producto Devuelto&lt;span style=&quot;white-space:pre&quot;&gt;&#x9;&lt;/span&gt;" style="points=[[0.25,0,0],[0.5,0,0],[0.75,0,0],[1,0.25,0],[1,0.5,0],[1,0.75,0],[0.75,1,0],[0.5,1,0],[0.25,1,0],[0,0.75,0],[0,0.5,0],[0,0.25,0]];shape=mxgraph.bpmn.task2;whiteSpace=wrap;rectStyle=rounded;size=10;html=1;container=1;expand=0;collapsible=0;taskMarker=manual;fillColor=none;strokeColor=#0e8088;" parent="oSE1kMPq5lx7fIb-xFxK-7" vertex="1">
          <mxGeometry x="1455" y="35" width="120" height="80" as="geometry" />
        </mxCell>
        <mxCell id="A5VUnK2V4IBuq19Gsul9-24" style="edgeStyle=orthogonalEdgeStyle;rounded=0;orthogonalLoop=1;jettySize=auto;html=1;" edge="1" parent="oSE1kMPq5lx7fIb-xFxK-7" source="A5VUnK2V4IBuq19Gsul9-16" target="A5VUnK2V4IBuq19Gsul9-23">
          <mxGeometry relative="1" as="geometry" />
        </mxCell>
        <mxCell id="A5VUnK2V4IBuq19Gsul9-16" value="" style="points=[[0.25,0.25,0],[0.5,0,0],[0.75,0.25,0],[1,0.5,0],[0.75,0.75,0],[0.5,1,0],[0.25,0.75,0],[0,0.5,0]];shape=mxgraph.bpmn.gateway2;html=1;verticalLabelPosition=bottom;labelBackgroundColor=#ffffff;verticalAlign=top;align=center;perimeter=rhombusPerimeter;outlineConnect=0;outline=none;symbol=none;gwType=exclusive;fillColor=#fad7ac;strokeColor=#b46504;" vertex="1" parent="oSE1kMPq5lx7fIb-xFxK-7">
          <mxGeometry x="1625" y="55" width="40" height="40" as="geometry" />
        </mxCell>
        <mxCell id="A5VUnK2V4IBuq19Gsul9-22" value="¿Cumple condiciones&lt;div&gt;de reembolso?&lt;/div&gt;" style="text;html=1;align=center;verticalAlign=middle;resizable=0;points=[];autosize=1;strokeColor=none;fillColor=none;fontSize=10;" vertex="1" parent="oSE1kMPq5lx7fIb-xFxK-7">
          <mxGeometry x="1585" y="15" width="120" height="40" as="geometry" />
        </mxCell>
        <mxCell id="A5VUnK2V4IBuq19Gsul9-23" value="&lt;span style=&quot;caret-color: rgba(0, 0, 0, 0);&quot;&gt;Informar Rechazo de Solicitud&lt;/span&gt;" style="points=[[0.25,0,0],[0.5,0,0],[0.75,0,0],[1,0.25,0],[1,0.5,0],[1,0.75,0],[0.75,1,0],[0.5,1,0],[0.25,1,0],[0,0.75,0],[0,0.5,0],[0,0.25,0]];shape=mxgraph.bpmn.task2;whiteSpace=wrap;rectStyle=rounded;size=10;html=1;container=1;expand=0;collapsible=0;taskMarker=send;fillColor=none;strokeColor=#0e8088;" vertex="1" parent="oSE1kMPq5lx7fIb-xFxK-7">
          <mxGeometry x="1720" y="35" width="120" height="80" as="geometry" />
        </mxCell>
        <mxCell id="A5VUnK2V4IBuq19Gsul9-35" value="&lt;span style=&quot;caret-color: rgba(0, 0, 0, 0);&quot;&gt;Se notifica que procesen el reembolso&lt;/span&gt;" style="points=[[0.25,0,0],[0.5,0,0],[0.75,0,0],[1,0.25,0],[1,0.5,0],[1,0.75,0],[0.75,1,0],[0.5,1,0],[0.25,1,0],[0,0.75,0],[0,0.5,0],[0,0.25,0]];shape=mxgraph.bpmn.task2;whiteSpace=wrap;rectStyle=rounded;size=10;html=1;container=1;expand=0;collapsible=0;taskMarker=send;fillColor=none;strokeColor=#0e8088;" vertex="1" parent="oSE1kMPq5lx7fIb-xFxK-7">
          <mxGeometry x="1905" y="35" width="120" height="80" as="geometry" />
        </mxCell>
        <mxCell id="A5VUnK2V4IBuq19Gsul9-36" style="edgeStyle=orthogonalEdgeStyle;rounded=0;orthogonalLoop=1;jettySize=auto;html=1;entryX=-0.007;entryY=0.587;entryDx=0;entryDy=0;entryPerimeter=0;" edge="1" parent="oSE1kMPq5lx7fIb-xFxK-7" source="A5VUnK2V4IBuq19Gsul9-16" target="A5VUnK2V4IBuq19Gsul9-35">
          <mxGeometry relative="1" as="geometry">
            <Array as="points">
              <mxPoint x="1645" y="136" />
              <mxPoint x="1875" y="136" />
              <mxPoint x="1875" y="82" />
            </Array>
          </mxGeometry>
        </mxCell>
        <mxCell id="A5VUnK2V4IBuq19Gsul9-68" value="NO" style="text;html=1;align=center;verticalAlign=middle;resizable=0;points=[];autosize=1;strokeColor=none;fillColor=none;" vertex="1" parent="oSE1kMPq5lx7fIb-xFxK-7">
          <mxGeometry x="1665" y="70" width="40" height="30" as="geometry" />
        </mxCell>
        <mxCell id="A5VUnK2V4IBuq19Gsul9-69" value="SI" style="text;html=1;align=center;verticalAlign=middle;resizable=0;points=[];autosize=1;strokeColor=none;fillColor=none;" vertex="1" parent="oSE1kMPq5lx7fIb-xFxK-7">
          <mxGeometry x="1641" y="111" width="30" height="30" as="geometry" />
        </mxCell>
        <mxCell id="oSE1kMPq5lx7fIb-xFxK-8" value="Finanzas" style="swimlane;startSize=40;horizontal=0;html=1;fillColor=#dae8fc;strokeColor=#6c8ebf;" parent="oSE1kMPq5lx7fIb-xFxK-5" vertex="1">
          <mxGeometry x="20" y="370" width="2510" height="160" as="geometry" />
        </mxCell>
        <mxCell id="A5VUnK2V4IBuq19Gsul9-42" style="edgeStyle=orthogonalEdgeStyle;rounded=0;orthogonalLoop=1;jettySize=auto;html=1;" edge="1" parent="oSE1kMPq5lx7fIb-xFxK-8" source="A5VUnK2V4IBuq19Gsul9-37" target="A5VUnK2V4IBuq19Gsul9-41">
          <mxGeometry relative="1" as="geometry" />
        </mxCell>
        <mxCell id="A5VUnK2V4IBuq19Gsul9-37" value="Recibe notificación de reembolso" style="points=[[0.25,0,0],[0.5,0,0],[0.75,0,0],[1,0.25,0],[1,0.5,0],[1,0.75,0],[0.75,1,0],[0.5,1,0],[0.25,1,0],[0,0.75,0],[0,0.5,0],[0,0.25,0]];shape=mxgraph.bpmn.task2;whiteSpace=wrap;rectStyle=rounded;size=10;html=1;container=1;expand=0;collapsible=0;taskMarker=receive;fillColor=none;strokeColor=#6c8ebf;" vertex="1" parent="oSE1kMPq5lx7fIb-xFxK-8">
          <mxGeometry x="1905" y="40" width="120" height="80" as="geometry" />
        </mxCell>
        <mxCell id="A5VUnK2V4IBuq19Gsul9-57" style="edgeStyle=orthogonalEdgeStyle;rounded=0;orthogonalLoop=1;jettySize=auto;html=1;" edge="1" parent="oSE1kMPq5lx7fIb-xFxK-8" source="A5VUnK2V4IBuq19Gsul9-41" target="A5VUnK2V4IBuq19Gsul9-47">
          <mxGeometry relative="1" as="geometry" />
        </mxCell>
        <mxCell id="A5VUnK2V4IBuq19Gsul9-41" value="Procesa reembolso" style="points=[[0.25,0,0],[0.5,0,0],[0.75,0,0],[1,0.25,0],[1,0.5,0],[1,0.75,0],[0.75,1,0],[0.5,1,0],[0.25,1,0],[0,0.75,0],[0,0.5,0],[0,0.25,0]];shape=mxgraph.bpmn.task2;whiteSpace=wrap;rectStyle=rounded;size=10;html=1;container=1;expand=0;collapsible=0;taskMarker=manual;fillColor=none;strokeColor=#6c8ebf;" vertex="1" parent="oSE1kMPq5lx7fIb-xFxK-8">
          <mxGeometry x="2095" y="40" width="120" height="80" as="geometry" />
        </mxCell>
        <mxCell id="A5VUnK2V4IBuq19Gsul9-47" value="&lt;span style=&quot;caret-color: rgba(0, 0, 0, 0);&quot;&gt;Se notifica reembolso&lt;/span&gt;" style="points=[[0.25,0,0],[0.5,0,0],[0.75,0,0],[1,0.25,0],[1,0.5,0],[1,0.75,0],[0.75,1,0],[0.5,1,0],[0.25,1,0],[0,0.75,0],[0,0.5,0],[0,0.25,0]];shape=mxgraph.bpmn.task2;whiteSpace=wrap;rectStyle=rounded;size=10;html=1;container=1;expand=0;collapsible=0;taskMarker=send;fillColor=none;strokeColor=#6c8ebf;" vertex="1" parent="oSE1kMPq5lx7fIb-xFxK-8">
          <mxGeometry x="2270" y="40" width="120" height="80" as="geometry" />
        </mxCell>
        <mxCell id="A5VUnK2V4IBuq19Gsul9-40" style="edgeStyle=orthogonalEdgeStyle;rounded=0;orthogonalLoop=1;jettySize=auto;html=1;" edge="1" parent="oSE1kMPq5lx7fIb-xFxK-5" source="A5VUnK2V4IBuq19Gsul9-35" target="A5VUnK2V4IBuq19Gsul9-37">
          <mxGeometry relative="1" as="geometry" />
        </mxCell>
        <mxCell id="A5VUnK2V4IBuq19Gsul9-18" value="" style="dashed=1;dashPattern=8 4;endArrow=blockThin;endFill=1;startArrow=oval;startFill=0;endSize=6;startSize=4;html=1;rounded=0;exitX=0.5;exitY=1;exitDx=0;exitDy=0;exitPerimeter=0;entryX=0.5;entryY=0;entryDx=0;entryDy=0;entryPerimeter=0;" edge="1" parent="1" source="ydT66f-T8BTC3pl3f6Xo-63" target="ydT66f-T8BTC3pl3f6Xo-65">
          <mxGeometry width="160" relative="1" as="geometry">
            <mxPoint x="1620" y="406" as="sourcePoint" />
            <mxPoint x="1780" y="406" as="targetPoint" />
          </mxGeometry>
        </mxCell>
        <mxCell id="A5VUnK2V4IBuq19Gsul9-2" value="" style="endArrow=blockThin;html=1;labelPosition=left;verticalLabelPosition=middle;align=right;verticalAlign=middle;dashed=1;dashPattern=8 4;endFill=0;startArrow=oval;startFill=0;endSize=6;startSize=4;rounded=0;exitX=0.5;exitY=1;exitDx=0;exitDy=0;exitPerimeter=0;" edge="1" parent="1" source="ydT66f-T8BTC3pl3f6Xo-4" target="ydT66f-T8BTC3pl3f6Xo-5">
          <mxGeometry relative="1" as="geometry">
            <mxPoint x="540" y="306" as="sourcePoint" />
            <mxPoint x="890" y="476" as="targetPoint" />
          </mxGeometry>
        </mxCell>
        <mxCell id="A5VUnK2V4IBuq19Gsul9-3" value="" style="shape=message;html=1;outlineConnect=0;labelPosition=left;verticalLabelPosition=middle;align=right;verticalAlign=middle;spacingRight=5;labelBackgroundColor=#ffffff;" vertex="1" parent="A5VUnK2V4IBuq19Gsul9-2">
          <mxGeometry width="24" height="16" relative="1" as="geometry">
            <mxPoint x="-12" y="-8" as="offset" />
          </mxGeometry>
        </mxCell>
        <mxCell id="A5VUnK2V4IBuq19Gsul9-14" value="" style="shape=message;html=1;outlineConnect=0;labelPosition=left;verticalLabelPosition=middle;align=right;verticalAlign=middle;spacingRight=5;labelBackgroundColor=#ffffff;" vertex="1" parent="A5VUnK2V4IBuq19Gsul9-2">
          <mxGeometry width="24" height="16" relative="1" as="geometry">
            <mxPoint x="978" y="100" as="offset" />
          </mxGeometry>
        </mxCell>
        <mxCell id="A5VUnK2V4IBuq19Gsul9-7" value="" style="endArrow=blockThin;html=1;labelPosition=left;verticalLabelPosition=middle;align=right;verticalAlign=middle;dashed=1;dashPattern=8 4;endFill=0;startArrow=oval;startFill=0;endSize=6;startSize=4;rounded=0;exitX=0.5;exitY=0;exitDx=0;exitDy=0;exitPerimeter=0;" edge="1" parent="1" source="ydT66f-T8BTC3pl3f6Xo-32" target="ydT66f-T8BTC3pl3f6Xo-33">
          <mxGeometry relative="1" as="geometry">
            <mxPoint x="870" y="356" as="sourcePoint" />
            <mxPoint x="1030" y="356" as="targetPoint" />
          </mxGeometry>
        </mxCell>
        <mxCell id="A5VUnK2V4IBuq19Gsul9-10" value="Solicitud con motivo" style="text;html=1;align=center;verticalAlign=middle;resizable=0;points=[];autosize=1;strokeColor=none;fillColor=none;fontSize=8;" vertex="1" parent="1">
          <mxGeometry x="390" y="330" width="90" height="20" as="geometry" />
        </mxCell>
        <mxCell id="A5VUnK2V4IBuq19Gsul9-31" value="" style="endArrow=blockThin;html=1;labelPosition=left;verticalLabelPosition=middle;align=right;verticalAlign=middle;dashed=1;dashPattern=8 4;endFill=0;startArrow=oval;startFill=0;endSize=6;startSize=4;rounded=0;exitX=0.5;exitY=0;exitDx=0;exitDy=0;exitPerimeter=0;entryX=0.5;entryY=1;entryDx=0;entryDy=0;entryPerimeter=0;" edge="1" parent="1" source="A5VUnK2V4IBuq19Gsul9-23" target="A5VUnK2V4IBuq19Gsul9-27">
          <mxGeometry relative="1" as="geometry">
            <mxPoint x="1890" y="626" as="sourcePoint" />
            <mxPoint x="2050" y="626" as="targetPoint" />
          </mxGeometry>
        </mxCell>
        <mxCell id="A5VUnK2V4IBuq19Gsul9-59" value="" style="endArrow=blockThin;html=1;labelPosition=left;verticalLabelPosition=middle;align=right;verticalAlign=middle;dashed=1;dashPattern=8 4;endFill=0;startArrow=oval;startFill=0;endSize=6;startSize=4;rounded=0;exitX=0.5;exitY=0;exitDx=0;exitDy=0;exitPerimeter=0;" edge="1" parent="1" source="A5VUnK2V4IBuq19Gsul9-47" target="A5VUnK2V4IBuq19Gsul9-58">
          <mxGeometry relative="1" as="geometry">
            <mxPoint x="2440" y="686" as="sourcePoint" />
            <mxPoint x="2600" y="686" as="targetPoint" />
          </mxGeometry>
        </mxCell>
        <mxCell id="A5VUnK2V4IBuq19Gsul9-11" value="Etiqueta" style="text;html=1;align=center;verticalAlign=middle;resizable=0;points=[];autosize=1;strokeColor=none;fillColor=none;fontSize=9;" vertex="1" parent="1">
          <mxGeometry x="1188" y="332" width="60" height="20" as="geometry" />
        </mxCell>
        <mxCell id="A5VUnK2V4IBuq19Gsul9-77" value="" style="endArrow=blockThin;html=1;labelPosition=left;verticalLabelPosition=middle;align=right;verticalAlign=middle;dashed=1;dashPattern=8 4;endFill=0;startArrow=oval;startFill=0;endSize=6;startSize=4;rounded=0;exitX=0.5;exitY=0;exitDx=0;exitDy=0;exitPerimeter=0;" edge="1" parent="1" source="ydT66f-T8BTC3pl3f6Xo-57" target="ydT66f-T8BTC3pl3f6Xo-59">
          <mxGeometry relative="1" as="geometry">
            <mxPoint x="1160" y="410" as="sourcePoint" />
            <mxPoint x="1320" y="410" as="targetPoint" />
          </mxGeometry>
        </mxCell>
        <mxCell id="A5VUnK2V4IBuq19Gsul9-78" value="" style="shape=message;html=1;outlineConnect=0;labelPosition=left;verticalLabelPosition=middle;align=right;verticalAlign=middle;spacingRight=5;labelBackgroundColor=#ffffff;" vertex="1" parent="A5VUnK2V4IBuq19Gsul9-77">
          <mxGeometry width="24" height="16" relative="1" as="geometry">
            <mxPoint x="-12" y="-5" as="offset" />
          </mxGeometry>
        </mxCell>
      </root>
    </mxGraphModel>
  </diagram>
</mxfile>
